custom-analysis
version=1
nRows=8
nColumns=42
inDegrees=no

This file contains tibia displacement and acting force.

Units are S.I. units (seconds, meters, Newtons, ...)
Angles are in degrees.

endheader
time	APT	SIT	knee_angle	aACL_R_force	pACL_R_force	aPCL_R_force	pPCL_R_force	aMCL_R_force	mMCL_R_force	pMCL_R_force	aLCL_R_force	mLCL_R_force	pLCL_R_force	aACL_R_length	pACL_R_length	aPCL_R_length	pPCL_R_length	aMCL_R_length	mMCL_R_length	pMCL_R_length	aLCL_R_length	mLCL_R_length	pLCL_R_length	aACL_R_strain	pACL_R_strain	aPCL_R_strain	pPCL_R_strain	aMCL_R_strain	mMCL_R_strain	pMCL_R_strain	aLCL_R_strain	mLCL_R_strain	pLCL_R_strain	femur_lat_meniscii_force_r	femur_lat_meniscii_torque_r	femur_med_meniscii_force_r	femur_med_meniscii_torque_r	femur_lat_tibia_force_r	femur_lat_tibia_torque_r	femur_med_tibia_force_r	femur_med_tibia_torque_r
      0.05586542	      0.00372004	      0.00455567	     17.85847614	     -7.94190786	      0.00000000	     32.76767622	     49.02081930	      0.00000000	      0.00000000	      0.00000000	     -1.50128997	      0.00000000	      0.00000000	      0.03106580	      0.02485018	      0.03109833	      0.03013126	      0.05606503	      0.05910103	      0.05937549	      0.05610964	      0.05342427	      0.05048686	      0.00194480	     -0.02005296	      0.00009748	      0.00144450	     -0.03381126	     -0.01158101	     -0.02227168	      0.00236599	     -0.05139207	     -0.03545551	    354.24605259	     64.66674184	    805.95178445	     43.26146274	      0.00000000	      0.00000000	    530.40837078	     11.68382172
      0.05646419	      0.00378536	      0.00464046	     18.18821552	     -6.90133525	      0.00000000	     33.30444908	     50.29902801	      0.00000000	      0.00000000	      0.00000000	     -0.72289315	      0.00000000	      0.00000000	      0.03105423	      0.02483044	      0.03115201	      0.03016176	      0.05607985	      0.05908020	      0.05931567	      0.05610838	      0.05340143	      0.05044356	      0.00157170	     -0.02083164	      0.00182374	      0.00245829	     -0.03355588	     -0.01192939	     -0.02325668	      0.00234346	     -0.05179769	     -0.03628287	    334.51529693	     62.75961158	    762.76905298	     39.16632884	      0.00000000	      0.00000000	    525.99845337	     11.60926692
      0.05700610	      0.00384487	      0.00471757	     18.48870250	     -8.26306730	      0.00000000	     33.44285982	     49.61703490	      0.00000000	      0.00000000	      0.00000000	     -3.63297918	      0.00000000	      0.00000000	      0.03104425	      0.02481311	      0.03120127	      0.03019003	      0.05609406	      0.05906198	      0.05926202	      0.05610752	      0.05338095	      0.05040450	      0.00124986	     -0.02151482	      0.00340807	      0.00339786	     -0.03331104	     -0.01223415	     -0.02414004	      0.00232811	     -0.05216128	     -0.03702899	    350.22747999	     66.23664132	    796.23977691	     42.75580134	      0.00000000	      0.00000000	    546.54492009	     12.06060803
      0.05754801	      0.00390407	      0.00479638	     18.79097075	     -7.19123754	      0.00000000	     34.53497378	     50.94204252	      0.00000000	      0.00000000	      0.00000000	     -3.04755596	      0.00000000	      0.00000000	      0.03103338	      0.02479505	      0.03125042	      0.03021812	      0.05610765	      0.05904300	      0.05920750	      0.05610575	      0.05335947	      0.05036441	      0.00089923	     -0.02222727	      0.00498863	      0.00433129	     -0.03307687	     -0.01255150	     -0.02503789	      0.00229652	     -0.05254265	     -0.03779499	    337.34170972	     64.27348465	    751.12968858	     44.05970545	      0.00000000	      0.00000000	    542.74647600	     11.99438826
      0.05808992	      0.00396438	      0.00487568	     19.09527303	     -7.17494745	      0.00000000	     36.42200907	     53.51897693	      0.00000000	      0.00000000	      0.00000000	     -2.36114944	      0.00000000	      0.00000000	      0.03102335	      0.02477783	      0.03129964	      0.03024627	      0.05612186	      0.05902449	      0.05915333	      0.05610394	      0.05333788	      0.05032414	      0.00057556	     -0.02290618	      0.00657129	      0.00526697	     -0.03283190	     -0.01286116	     -0.02592990	      0.00226409	     -0.05292602	     -0.03856432	    323.10561319	     61.17901880	    750.49040234	     38.90986670	      0.00000000	      0.00000000	    542.48814065	     12.00676170
      0.05879114	      0.00404154	      0.00497872	     19.49158423	     -7.41486417	      0.00000000	     39.70059554	     57.84105703	      0.00000000	      0.00000000	      0.00000000	     -1.11146473	      0.00000000	      0.00000000	      0.03101016	      0.02475553	      0.03136525	      0.03028454	      0.05614154	      0.05900161	      0.05908413	      0.05610257	      0.05331079	      0.05027284	      0.00015026	     -0.02378552	      0.00868136	      0.00653899	     -0.03249276	     -0.01324379	     -0.02706944	      0.00223959	     -0.05340711	     -0.03954448	    300.78251117	     55.92704624	    741.44845640	     37.71411343	      0.00000000	      0.00000000	    541.20759994	     11.95341125
      0.05949235	      0.00411844	      0.00508320	     19.89084905	      0.00000000	      0.00000000	     42.34979891	     59.30386482	      0.00000000	      0.00000000	      0.00000000	     -2.37464259	      0.00000000	      0.00000000	      0.03099648	      0.02473293	      0.03143174	      0.03032360	      0.05616173	      0.05897899	      0.05901500	      0.05610109	      0.05328345	      0.05022123	     -0.00029090	     -0.02467671	      0.01081976	      0.00783714	     -0.03214494	     -0.01362204	     -0.02820773	      0.00221324	     -0.05389258	     -0.04053031	    301.79405459	     56.41504694	    722.08441520	     43.73906825	      0.00000000	      0.00000000	    548.12858548	     12.12268462
      0.06019357	      0.00419622	      0.00518927	     20.29320132	      0.00000000	      0.00000000	     45.34812541	     60.26035756	      0.00000000	      0.00000000	      0.00000000	     -6.16850091	      0.00000000	      0.00000000	      0.03098332	      0.02471106	      0.03149800	      0.03036238	      0.05618209	      0.05895632	      0.05894566	      0.05609888	      0.05325525	      0.05016871	     -0.00071521	     -0.02553917	      0.01295038	      0.00912587	     -0.03179401	     -0.01400117	     -0.02934951	      0.00217370	     -0.05439329	     -0.04153384	    326.33868679	     61.05057044	    759.05393965	     48.07188115	      0.00000000	      0.00000000	    576.13344615	     12.74689867
